<?xml version="1.0" standalone="no"?>
<!DOCTYPE svg PUBLIC "-//W3C//DTD SVG 1.1//EN" "http://www.w3.org/Graphics/SVG/1.1/DTD/svg11.dtd" >
<!--
2013-9-30: Created.
-->
<svg>
<metadata>
Created by iconfont
</metadata>
<defs>

<font id="iconfont" horiz-adv-x="1024" >
  <font-face
    font-family="iconfont"
    font-weight="500"
    font-stretch="normal"
    units-per-em="1024"
    ascent="896"
    descent="-128"
  />
    <missing-glyph />
    
    <glyph glyph-name="x" unicode="x" horiz-adv-x="1001"
d="M281 543q-27 -1 -53 -1h-83q-18 0 -36.5 -6t-32.5 -18.5t-23 -32t-9 -45.5v-76h912v41q0 16 -0.5 30t-0.5 18q0 13 -5 29t-17 29.5t-31.5 22.5t-49.5 9h-133v-97h-438v97zM955 310v-52q0 -23 0.5 -52t0.5 -58t-10.5 -47.5t-26 -30t-33 -16t-31.5 -4.5q-14 -1 -29.5 -0.5
t-29.5 0.5h-32l-45 128h-439l-44 -128h-29h-34q-20 0 -45 1q-25 0 -41 9.5t-25.5 23t-13.5 29.5t-4 30v167h911zM163 247q-12 0 -21 -8.5t-9 -21.5t9 -21.5t21 -8.5q13 0 22 8.5t9 21.5t-9 21.5t-22 8.5zM316 123q-8 -26 -14 -48q-5 -19 -10.5 -37t-7.5 -25t-3 -15t1 -14.5
t9.5 -10.5t21.5 -4h37h67h81h80h64h36q23 0 34 12t2 38q-5 13 -9.5 30.5t-9.5 34.5q-5 19 -11 39h-368zM336 498v228q0 11 2.5 23t10 21.5t20.5 15.5t34 6h188q31 0 51.5 -14.5t20.5 -52.5v-227h-327z" />
    

    
    <glyph glyph-name="kttx" unicode="&#58921;" d="M174.068478-62.899306c-61.014632 0-110.647029 49.638537-110.647029 110.647029L63.421448 719.882863c0 61.008492 49.633421 110.647029 110.647029 110.647029l672.134117 0c61.003376 0 110.636796-49.638537 110.636796-110.647029l0-672.13514c0-61.008492-49.633421-110.647029-110.636796-110.647029L174.068478-62.899306zM174.074617 758.573047c-21.336958 0-38.694277-17.352203-38.694277-38.689161l0-672.13514c0-21.325701 17.358343-38.678928 38.694277-38.678928l672.129001 0c21.336958 0 38.695301 17.352203 38.695301 38.678928L884.898919 719.882863c0 21.336958-17.358343 38.689161-38.695301 38.689161L174.074617 758.572024zM546.142611 113.702877c-37.069267 0-185.407734 0.356111-223.325321 0.443092l-8.843412 0.021489c-31.503505 0-35.541471 19.230993-35.541471 35.979446 0 9.146311 1.2689 22.233374 12.271488 30.256094 7.844665 5.733585 16.639982 5.733585 23.706935 5.733585L546.142611 186.136583c20.478404 0 21.363564 19.436678 21.369703 19.641339 0.410346 101.793384 0.210801 257.511935 0.080841 331.327104l-102.548584-102.311177c-8.422833-8.746198-16.440437-17.060561-29.176506-17.060561-12.196787 0-21.600971 7.720845-32.8205 20.170388-9.998725 13.83203-9.400091 29.100782 1.316995 41.194214l167.434383 167.380148c8.513908 10.236132 19.814278 16.035208 31.546483 16.035208 8.15268 0 20.289092-2.785439 31.821753-16.013719 67.407226-76.698846 142.150534-161.139004 147.873886-166.527734 8.746198-7.688099 11.419074-20.041452 6.857175-32.134885-5.021364-13.357216-19.776416-26.88737-38.257326-26.88737-10.323113 0-19.787672 4.113691-28.944216 12.558014l-83.236749 98.089016 0-325.906651C639.458927 145.514397 607.188966 113.702877 546.142611 113.702877z"  horiz-adv-x="1024" />

    
    <glyph glyph-name="3" unicode="&#59259;" d="M603.534222 140.231111c-16.867556 0-30.520889 13.624889-30.520889 30.464L573.013333 505.884444c0 16.839111 13.624889 30.464 30.520889 30.464s30.520889-13.624889 30.520889-30.464l0-335.189333C634.055111 153.856 620.401778 140.231111 603.534222 140.231111L603.534222 140.231111 603.534222 140.231111zM420.465778 140.231111c-16.867556 0-30.520889 13.624889-30.520889 30.464L389.944889 505.884444c0 16.839111 13.624889 30.464 30.520889 30.464 16.867556 0 30.520889-13.624889 30.520889-30.464l0-335.189333C450.958222 153.856 437.333333 140.231111 420.465778 140.231111L420.465778 140.231111 420.465778 140.231111zM908.686222 658.232889l-152.576 0L756.110222 719.189333c0 50.403556-40.732444 91.420444-90.851556 91.420444L359.424 810.609778c-50.460444 0-91.534222-41.016889-91.534222-91.420444l0-60.956444L115.313778 658.232889c-16.867556 0-30.520889-13.624889-30.520889-30.464 0-16.839111 13.624889-30.464 30.520889-30.464l793.344 0c16.867556 0 30.520889 13.624889 30.520889 30.464C939.178667 644.608 925.553778 658.232889 908.686222 658.232889L908.686222 658.232889 908.686222 658.232889zM328.931556 719.189333c0 16.782222 13.710222 30.464 30.520889 30.464l305.834667 0c16.725333 0 29.809778-13.368889 29.809778-30.464l0-60.956444L328.931556 658.232889 328.931556 719.189333 328.931556 719.189333 328.931556 719.189333zM725.731556-42.581333 298.467556-42.581333c-50.460444 0-91.534222 41.016889-91.534222 91.420444L206.933333 506.339556c0 16.810667 13.681778 30.464 30.520889 30.464 16.839111 0 30.520889-13.653333 30.520889-30.464l0-457.528889c0-16.810667 13.710222-30.464 30.520889-30.464l427.264 0c16.839111 0 30.520889 13.653333 30.520889 30.464L756.280889 505.088c0 16.810667 13.653333 30.464 30.520889 30.464 16.867556 0 30.520889-13.653333 30.520889-30.464l0-456.277333C817.265778-1.592889 776.192-42.581333 725.731556-42.581333L725.731556-42.581333 725.731556-42.581333zM725.731556-42.581333"  horiz-adv-x="1024" />

    
    <glyph glyph-name="houxuanrenxuanzhong" unicode="&#58908;" d="M965.022282 243.986622l0 25.612644c0 8.532731 0 14.23326-2.846652 19.91934-5.693304 8.532731-8.539956 17.072688-17.072688 22.765992-8.532731 5.693304-17.072688 11.386608-25.612644 14.226035-8.539956 2.846652-17.079913 5.693304-28.459296 8.539956-11.386608 2.846652-19.91934 5.693304-28.459296 8.532731-8.539956 5.693304-17.072688 8.539956-22.765992 14.226035-5.686079 2.846652-8.539956 8.539956-11.379383 14.226035 0 5.686079-2.846652 11.379383-2.846652 17.072688l0 17.072688c0 5.693304 2.846652 8.532731-2.846652 11.386608 2.846652 2.846652 2.846652 5.686079 5.693304 8.539956 2.846652 2.846652 5.693304 2.846652 8.539956 5.686079 2.846652 0 5.693304 2.846652 8.539956 5.693304 2.846652 2.846652 5.693304 5.693304 8.532731 11.379383 2.846652 5.693304 2.846652 8.539956 5.693304 14.226035 2.846652 5.693304 5.693304 11.386608 5.693304 17.072688 2.846652 0 5.686079 2.846652 8.532731 5.693304 2.846652 2.846652 5.686079 5.693304 8.539956 11.386608 2.846652 2.846652 5.693304 8.532731 5.693304 17.072688l0 14.226035c0 2.846652-2.846652 5.686079-2.846652 8.532731 0 2.846652-2.846652 5.686079-5.693304 5.686079 0 14.226035 0 28.459296-2.846652 42.685331 0 11.379383-2.846652 22.765992-8.539956 36.992027-5.693304 14.226035-11.379383 25.612644-19.91934 36.999252-2.846652 5.693304-8.539956 8.532731-14.226035 14.226035-5.693304 2.846652-11.386608 8.539956-19.91934 11.379383-8.539956 2.846652-17.072688 5.693304-28.452071 11.386608-8.539956 2.846652-17.079913 2.846652-28.459296 2.846652-8.532731 0-17.072688-2.846652-25.612644-2.846652l-25.612644-8.539956c-2.846652-2.846652-8.539956-5.693304-14.226035-8.539956 5.686079-8.532731 8.539956-17.079913 11.379383-25.612644 0-5.686079 2.846652-8.532731 2.846652-11.379383l17.072688 8.539956c5.686079 2.846652 11.379383 5.693304 17.072688 5.693304 5.693304 2.846652 11.379383 2.846652 17.072688 2.846652 8.539956 0 14.226035 0 19.91934-2.846652 8.539956 0 14.226035-2.846652 19.91934-5.693304 5.693304-2.846652 11.379383-5.693304 14.226035-8.539956l8.539956-8.539956c5.693304-8.532731 11.379383-17.072688 11.379383-25.612644 5.693304-11.386608 8.539956-22.765992 8.539956-31.305948 2.846652-11.386608 2.846652-22.765992 2.846652-34.1526l0-22.765992 2.846652-11.379383-14.226035-5.693304-5.686079-22.765992c0-2.846652-2.846652-8.532731-2.846652-11.379383 0-2.846652 0-5.693304-2.846652-8.539956 0 0 0-2.846652-2.846652-2.846652-2.846652-5.693304-8.539956-8.539956-11.386608-11.386608-5.693304-5.693304-11.379383-14.226035-14.226035-19.91934-2.846652-5.693304-5.686079-14.226035-5.686079-19.91934-2.846652-8.539956-2.846652-17.072688-2.846652-25.612644 2.846652-8.539956 5.693304-19.91934 8.539956-28.459296 5.693304-11.379383 14.226035-19.91934 22.765992-28.452071 8.532731-8.532731 19.91934-14.226035 34.1526-19.91934 8.539956-5.693304 19.91934-8.539956 31.298723-11.379383l25.612644-8.532731 17.072688-8.539956c2.846652 0 2.846652-2.846652 2.846652-2.846652s2.846652-5.693304 2.846652-11.379383l0-19.91934 0-14.226035c-5.693304-2.846652-11.386608-2.846652-19.91934-5.686079-11.379383 0-22.765992-2.846652-36.992027-5.693304-14.226035-2.846652-31.305948-2.846652-42.685331-5.693304l-5.693304 0c5.693304-8.539956 11.386608-17.072688 14.226035-28.452071 2.846652 0 2.846652-2.846652 2.846652-5.693304 11.386608 2.846652 25.612644 2.846652 36.992027 5.693304 14.226035 2.846652 28.459296 5.686079 39.838679 8.539956 11.386608 2.846652 19.91934 5.686079 28.459296 8.539956 8.539956 2.846652 11.379383 5.693304 14.226035 8.532731 2.846652 2.846652 5.686079 8.539956 5.686079 17.072688C967.868934 232.607239 967.868934 241.13997 965.022282 243.986622zM799.967036 169.995343c-5.686079 14.226035-11.379383 22.765992-22.765992 31.305948-11.386608 8.539956-22.765992 14.226035-36.992027 19.91934-14.226035 5.686079-28.459296 11.379383-42.685331 14.226035-14.226035 5.693304-28.452071 8.539956-39.838679 14.23326-14.226035 5.693304-22.765992 14.226035-31.305948 19.91934-8.539956 8.532731-14.226035 14.23326-17.072688 22.765992-2.846652 8.539956-5.686079 14.226035-5.686079 22.765992 0 8.532731 0 14.226035 2.846652 22.758767 2.846652 5.693304 2.846652 11.386608 5.693304 14.226035 2.846652 5.693304 5.686079 8.539956 8.532731 11.386608 2.846652 2.846652 8.539956 5.686079 11.379383 8.539956 2.846652 0 5.693304 5.686079 11.386608 8.539956 5.686079 2.846652 8.539956 8.532731 11.379383 14.226035 2.846652 8.539956 5.693304 14.226035 8.539956 19.91934 2.846652 8.539956 2.846652 14.226035 5.693304 22.765992 5.693304 2.846652 8.539956 5.693304 14.226035 8.539956 5.686079 2.846652 8.532731 8.532731 11.379383 14.226035 2.846652 5.693304 2.846652 14.226035 5.693304 25.612644l0 19.91934c-2.846652 5.686079-2.846652 11.379383-5.693304 14.226035l-8.539956 8.539956c0 19.91934 0 39.838679-2.846652 59.758019-2.846652 17.072688-8.539956 34.145375-19.91934 56.911367-5.693304 17.072688-17.072688 34.1526-28.452071 51.225288-2.846652 5.693304-11.386608 14.226035-19.91934 19.91934-8.532731 5.693304-19.91934 11.386608-31.305948 17.072688-11.379383 5.693304-22.765992 11.386608-36.992027 14.226035-11.379383 2.846652-25.612644 5.693304-39.838679 5.693304-11.379383 0-22.765992 0-34.145375-2.846652-14.226035-2.846652-25.612644-5.693304-36.992027-11.386608-11.379383-5.693304-22.765992-11.379383-34.145375-19.91934-11.379383-8.532731-22.765992-19.91934-31.305948-34.1526-11.379383-14.226035-17.072688-31.305948-22.765992-48.378635-5.693304-19.91934-8.539956-34.145375-11.379383-51.218063-2.846652-19.91934-2.846652-36.992027-2.846652-56.911367-2.846652-2.846652-5.686079-8.539956-8.539956-14.226035 0-5.693304-2.846652-11.386608-2.846652-17.072688 0-5.693304 0-14.226035 2.846652-22.765992 2.846652-8.539956 5.693304-14.226035 8.539956-19.91934 2.846652-5.693304 5.693304-8.532731 8.539956-11.379383 5.693304-2.846652 8.539956-5.693304 11.386608-5.693304 2.846652-8.539956 5.693304-14.226035 8.532731-22.765992 2.846652-8.532731 5.693304-14.226035 8.539956-19.91934 2.846652-5.693304 8.539956-11.386608 11.379383-14.226035 8.539956-5.693304 17.079913-14.226035 22.765992-19.91934 5.693304-8.539956 11.386608-17.072688 11.386608-28.452071l0-19.91934c0-5.693304 0-11.379383-2.846652-17.072688-2.846652-5.693304-5.686079-11.379383-11.379383-17.072688-5.693304-8.532731-11.379383-14.226035-22.765992-19.91934-14.226035-8.539956-28.452071-14.226035-45.531983-19.91934-17.072688-2.846652-31.305948-8.539956-48.378635-14.226035-17.072688-5.693304-28.452071-11.379383-39.838679-25.612644-11.379383-11.386608-19.91934-25.612644-22.765992-42.685331-5.686079-31.305948-5.686079-56.911367-2.846652-76.830706 2.846652-19.91934 5.693304-34.1526 11.379383-36.992027 2.846652-2.846652 17.079913-5.693304 36.992027-11.379383 22.765992-5.693304 45.531983-8.539956 73.984054-14.226035 28.459296-5.693304 56.918592-8.539956 85.370663-11.386608 28.459296-2.846652 54.07194-5.686079 76.837931-5.686079 14.226035 0 31.305948 0 51.218063 2.846652 19.91934 0 39.838679 2.846652 59.758019 5.693304 19.91934 2.846652 42.685331 5.686079 62.604671 8.539956 22.765992 5.686079 39.838679 8.539956 56.911367 11.379383 17.072688 2.846652 31.305948 8.539956 42.685331 11.386608 11.379383 2.846652 17.072688 8.539956 19.91934 11.379383 2.846652 5.693304 5.693304 11.386608 8.539956 22.765992 2.846652 11.379383 2.846652 22.765992 2.846652 34.145375 0 11.386608-2.846652 22.765992-2.846652 34.1526C805.66034 152.922656 802.813688 161.462612 799.967036 169.995343zM97.082396 286.671954c2.846652 2.846652 8.539956 5.693304 17.079913 8.539956 8.532731 2.846652 19.91934 5.693304 31.305948 8.539956 17.072688 2.846652 31.305948 8.532731 42.685331 17.072688 8.539956 8.539956 17.072688 14.226035 22.765992 19.91934 8.532731 8.532731 14.226035 17.072688 17.072688 25.612644 2.846652 8.539956 5.693304 17.072688 5.693304 25.612644L233.685571 409.034643c-2.846652 19.91934-11.386608 34.1526-19.91934 42.685331-2.846652 5.693304-8.532731 8.532731-14.226035 14.226035 0 2.846652-2.846652 5.686079-2.846652 8.539956-2.846652 5.686079-2.846652 8.539956-5.693304 14.226035l-5.686079 19.91934-14.226035 2.846652 0 2.846652 0 2.846652 8.539956 11.386608 0 14.226035c0 11.386608 0 22.765992 2.846652 34.1526 2.846652 8.539956 2.846652 17.072688 8.539956 28.452071 0 8.539956 5.693304 17.072688 8.539956 22.765992 5.693304 5.693304 8.539956 11.386608 14.226035 14.226035 5.693304 5.693304 11.386608 8.539956 17.072688 8.539956 5.693304 2.846652 11.386608 5.693304 17.079913 5.693304 5.686079 2.846652 11.379383 2.846652 17.072688 2.846652 8.539956 0 14.226035-2.846652 19.91934-2.846652 5.693304-2.846652 14.226035-5.693304 19.91934-8.539956 2.846652 0 8.539956-2.846652 11.379383-5.693304l0 2.846652c2.846652 11.386608 8.532731 22.765992 11.386608 34.1526-2.846652 2.846652-5.693304 2.846652-8.539956 5.686079-8.539956 2.846652-17.079913 5.693304-22.765992 8.532731-8.539956 2.846652-17.072688 2.846652-28.459296 2.846652-8.539956 0-17.072688-2.846652-25.612644-2.846652s-17.072688-2.846652-25.612644-5.686079c-8.539956-2.846652-17.079913-8.539956-25.612644-11.386608-8.539956-5.686079-17.072688-14.226035-22.765992-22.765992-8.532731-11.379383-14.226035-22.758767-17.072688-34.145375-5.686079-11.379383-8.539956-22.765992-8.539956-34.145375-2.846652-14.226035-2.846652-25.612644-2.846652-39.838679-2.846652-2.846652-5.693304-8.539956-5.693304-11.386608 0-2.846652-2.846652-5.686079-2.846652-11.379383 0-5.693304 0-11.386608 2.846652-17.072688 0-5.693304 2.846652-11.386608 5.693304-14.23326 0-5.693304 2.846652-5.693304 5.693304-8.532731 2.846652 0 5.686079-2.846652 8.539956-2.846652 2.846652-5.686079 2.846652-11.379383 5.686079-17.072688 2.846652-5.686079 2.846652-8.539956 5.693304-14.226035 2.846652-5.686079 5.693304-8.539956 8.539956-11.379383 8.532731-5.693304 11.386608-8.539956 17.072688-14.226035 5.693304-5.686079 8.539956-11.379383 8.539956-19.91934l0-14.226035c0-2.846652 0-8.532731-5.686079-11.386608-2.846652-2.846652-5.693304-8.539956-8.532731-11.379383-2.846652-5.693304-8.539956-8.539956-17.079913-14.226035-8.532731-5.686079-19.91934-11.379383-31.298723-14.226035-11.386608-2.846652-22.765992-8.532731-34.1526-11.379383-11.379383-2.846652-19.91934-8.539956-28.452071-14.226035-5.693304-5.693304-11.386608-14.226035-14.226035-28.452071-2.846652-22.765992-5.693304-39.838679-2.846652-54.07194 2.846652-14.226035 5.693304-22.765992 5.693304-19.91934 2.846652-2.846652 11.386608-5.686079 25.612644-8.539956 14.23326-2.846652 31.305948-5.693304 51.225288-8.532731 11.379383-2.846652 25.612644-2.846652 39.838679-5.693304 2.846652 14.226035 8.532731 25.612644 17.072688 36.992027-17.072688 0-34.145375 2.846652-51.218063 5.693304-17.079913 2.846652-34.1526 5.686079-48.378635 8.539956L91.396317 238.322218c0 5.693304 0 19.91934 2.846652 42.685331C97.082396 283.825302 97.082396 286.671954 97.082396 286.671954z"  horiz-adv-x="1024" />

    
    <glyph glyph-name="xiajia" unicode="&#59011;" d="M130.285942 896l770.363693 0c69.915404 0 126.803427-56.89322 126.803427-126.815555l0-770.363693c0-69.9258-56.888023-126.81902-126.803427-126.81902L130.285942-127.998267C60.353212-128 3.46519-71.10678 3.46519-1.179247L3.46519 769.184445C3.46519 839.10678 60.353212 896 130.285942 896L130.285942 896zM130.29114-45.525015l770.360227 0c24.455578 0 44.350966 19.89019 44.350966 44.345768L945.002333 769.184445c0 24.439984-19.895388 44.330174-44.350966 44.330174L130.29114 813.51462c-24.455578 0-44.350966-19.89019-44.350966-44.330174l0-770.370623C85.938442-25.641756 105.835563-45.525015 130.29114-45.525015L130.29114-45.525015zM130.29114-45.525015M556.733003 693.589595c69.97258 0 106.953086-36.462461 106.958284-105.431868l0-373.53361 95.401876 112.421156c10.492595 9.681741 21.338639 14.394399 33.168798 14.394399 21.182706 0 38.094565-15.508457 43.848513-30.814201 5.232437-13.862492 2.164011-28.021258-7.859051-36.834969-6.559604-6.173236-92.222564-102.957722-169.482438-190.866125-13.217967-15.160206-27.130704-18.349913-36.476321-18.349913-13.443204 0-26.397817 6.641036-36.154059 18.377635L394.234655 274.791941c-12.284098 13.862492-12.966741 31.363434-1.510823 47.216678 12.861052 14.271385 23.639525 23.119747 37.619834 23.119747 14.59538 0 23.785063-9.531005 33.439083-19.554067l117.535776-117.267224c0.150736 84.607809 0.381171 263.082415-0.090095 379.750161-0.005198 0.235633-1.022231 22.515071-24.495427 22.515071L291.138325 610.572308c-8.103347 0-18.181851 0-27.175752 6.57-12.609826 9.194881-14.063473 24.193956-14.063473 34.674423 0 19.20235 4.627761 41.239225 40.73504 41.239225l10.13568 0.022524C344.231965 693.17897 514.249775 693.589595 556.733003 693.589595L556.733003 693.589595zM556.733003 693.589595"  horiz-adv-x="1032" />

    
    <glyph glyph-name="xiugai" unicode="&#58961;" d="M383.754 249.754l181.095 51.415L435.497 429.729 383.754 249.754zM867.434 601.908 738.081 730.471 453.5 447.641l129.352-128.55L867.434 601.908zM829.739 125.828c0-44.671-36.226-80.913-80.911-80.913L263.344 44.915c-44.697 0-80.914 36.242-80.914 80.913L182.43 611.313c0 44.697 36.217 80.913 80.914 80.913l323.655 0 80.915 80.915L236.373 773.141c-74.487 0-134.856-60.369-134.856-134.857l0-539.426c0-74.489 60.37-134.856 134.856-134.856l539.426 0c74.474 0 134.856 60.369 134.856 134.856L910.655 530.4l-80.916-80.915L829.739 125.828zM927.554 709.901l-80.85 80.347c-13.395 13.315-35.835 12.59-50.124-1.606l-38.812-38.561 129.354-128.562 38.81 38.573C940.221 674.289 940.946 696.585 927.554 709.901z"  horiz-adv-x="1024" />

    
    <glyph glyph-name="pipeizhiwei" unicode="&#58914;" d="M393.733944 601.798445 608.481913 601.798445c23.747867 0 43.00035 18.260899 43.00035 40.760332l85.893252 145.745409c0 22.499433-19.23304 40.733727-42.963511 40.733727L307.804876 829.037912c-23.693632 0-42.928718-18.234293-42.928718-40.733727l85.929068-145.745409C350.805226 620.059344 369.986077 601.798445 393.733944 601.798445zM608.481913 593.162764 393.733944 593.162764 264.876158 178.827107l236.231259-238.963487 257.750365 218.5956L608.481913 593.162764z"  horiz-adv-x="1024" />

    
    <glyph glyph-name="ruxuan" unicode="&#58893;" d="M703.634286 348.891429c2.925714-1.462857 4.388571-1.462857 5.851429-2.925714C868.937143 281.6 968.411429 166.034286 1009.371429 0.731429c7.314286-30.72 11.702857-61.44 13.165714-93.622857 0-8.777143 1.462857-19.017143 1.462857-27.794286 0-7.314286 0-7.314286-7.314286-7.314286-52.662857 0-106.788571 0-159.451429 0-26.331429 0-54.125714 0-80.457143 0-4.388571 0-7.314286 1.462857-7.314286 7.314286 0 29.257143 0 58.514286 0 87.771429 0 4.388571 1.462857 7.314286 5.851429 7.314286 42.422857 0 84.845714 0 127.268571 0 2.925714 0 4.388571 0 8.777143 0-1.462857 7.314286-2.925714 13.165714-4.388571 20.48-40.96 144.822857-136.045714 235.52-280.868571 275.017143-30.72 8.777143-62.902857 11.702857-95.085714 13.165714-67.291429 2.925714-131.657143-7.314286-193.097143-33.645714-109.714286-46.811429-181.394286-128.731429-216.502857-241.371429-2.925714-8.777143-4.388571-17.554286-7.314286-26.331429-1.462857-7.314286-1.462857-7.314286 5.851429-7.314286 42.422857 0 84.845714 0 127.268571 0 8.777143 0 8.777143 0 8.777143-8.777143 0-29.257143 0-57.051429 0-86.308571 0-4.388571-1.462857-5.851429-5.851429-5.851429C168.228571-128 87.771429-128 5.851429-128 1.462857-128 0-126.537143 0-122.148571c2.925714 119.954286 36.571429 228.205714 112.64 321.828571 54.125714 67.291429 121.417143 114.102857 201.874286 146.285714 1.462857 0 2.925714 1.462857 4.388571 1.462857 0 0 0 0 1.462857 1.462857-73.142857 62.902857-114.102857 141.897143-114.102857 238.445714 0 96.548571 39.497143 177.005714 114.102857 238.445714 118.491429 96.548571 292.571429 90.697143 405.211429-17.554286 65.828571-64.365714 98.011429-143.36 93.622857-235.52C814.811429 483.474286 775.314286 408.868571 703.634286 348.891429zM718.262857 588.8c0 112.64-90.697143 206.262857-206.262857 206.262857-114.102857 0-206.262857-90.697143-206.262857-204.8 0-115.565714 93.622857-206.262857 204.8-206.262857C624.64 382.537143 718.262857 474.697143 718.262857 588.8zM512-126.537143c-46.811429 46.811429-95.085714 95.085714-141.897143 141.897143 23.405714 23.405714 46.811429 46.811429 70.217143 70.217143 23.405714-23.405714 46.811429-46.811429 71.68-71.68 40.96 40.96 81.92 81.92 122.88 122.88 23.405714-24.868571 46.811429-48.274286 70.217143-70.217143C640.731429 3.657143 576.365714-62.171429 512-126.537143z"  horiz-adv-x="1024" />

    
    <glyph glyph-name="quxiao1" unicode="&#58880;" d="M708.102 814.462l31.295-27.684zM691.251 828.906l16.851-14.444zM963.277 152.452v450.769c0-11.435-225.084 184.761-272.026 226.287-33.964 38.005-81.512 63.253-134.951 68.075l-324.243-1.874c-2.879 0.185-6.243 0.291-9.632 0.291-87.76 0-158.964-70.884-159.481-158.522l-0-674.096c-0.034-1.334-0.054-2.904-0.054-4.479 0-97.031 73.836-176.817 168.387-186.238l730.797-0.063c-22.869 23.471-98.7 68.608-113.144 97.496h-560.903c-56.17 3.755-101.855 44.402-113.224 97.75l0.081 629.859c11.986 54.001 57.97 94.311 113.899 97.546l222.523-0.050c33.101-7.222 56.572-13.842 56.572-48.748v-97.496c0-21.666 0-97.496 56.572-97.496h113.144c45.739 0 113.144-60.183 113.144-97.496v-353.273c74.724 44.077 162.66 74.573 256.542 85.653zM310.896 183.145c8.267-6.292 18.737-10.081 30.091-10.081s21.824 3.789 30.214 10.171l109.41 94.397 109.533-94.487c8.267-6.292 18.737-10.081 30.091-10.081s21.824 3.789 30.214 10.171c7.766 6.361 12.761 16.093 12.761 26.993 0 10.899-4.995 20.632-12.821 27.033l-109.595 94.536 109.533 94.487c7.888 6.451 12.884 16.183 12.884 27.082s-4.995 20.632-12.821 27.033c-8.297 6.434-18.776 10.285-30.154 10.285-11.378 0-21.857-3.851-30.204-10.32l-109.42-94.403-109.533 95.089c-8.267 6.292-18.737 10.081-30.091 10.081s-21.824-3.789-30.214-10.171c-7.766-6.361-12.761-16.093-12.761-26.993 0-10.899 4.995-20.632 12.821-27.033l109.595-94.536-109.533-94.487c-8.285-6.446-13.563-16.417-13.563-27.621 0-10.934 5.028-20.695 12.897-27.095z"  horiz-adv-x="1024" />

    
    <glyph glyph-name="huojiang" unicode="&#58886;" d="M657.12 468.47a32.66 32.66 0 0 0-32.67 32.67V693.77a32.67 32.67 0 0 0 65.35 0v-192.63a32.66 32.66 0 0 0-32.68-32.67zM875.94 742h-59.67A89.44 89.44 0 0 1 727 831H298.08a89.44 89.44 0 0 1-89.27-89H148c-46.82 0-85-40.09-85-89.33v-109.15c0-97.35 64.69-205.75 157.29-206.52C255.78 230.4 369 153.58 480 140.57V1H317.12a32.5 32.5 0 1 1 0-65h388.67a32.5 32.5 0 1 1 0 65H545V140.57c110 13 223.63 89.84 259.51 196.44C896.78 338.26 961 446.38 961 543.52V652.67c0 49.24-38.23 89.33-85.06 89.33zM128 543.52V652.67c0 13 9.43 24.33 20 24.33h61s-0.33-272.22-0.32-273.17C163.22 414.85 128 484.79 128 543.52zM749.58 406.7c0-114.17-129.34-202.7-237.11-202.7C402.23 204 274 292.53 274 406.7v335a24.41 24.41 0 0 0 24.08 24.3H725c13.19 0 24.93-10.93 24.93-23.43-0.05-2.57-0.35-255.34-0.35-335.87zM895 543.52c0-58.4-34.25-127.89-79.34-139.5 0 0.89 0.4 192 0.51 273h59.78c10.61 0 19.06-11.34 19.06-24.33v-109.17z"  horiz-adv-x="1024" />

    
    <glyph glyph-name="yuetanxiangmu" unicode="&#58894;" d="M258.944 334.208a50.624 50.624 0 1 1 0.128 101.248 50.624 50.624 0 0 1-0.128-101.248z m0 0M427.776 334.208a50.688 50.688 0 1 1-50.624 50.624 50.56 50.56 0 0 1 50.624-50.624z m0 0M596.544 334.208a50.56 50.56 0 1 1 0 101.248 50.56 50.56 0 0 1 0-101.248z m0 0M782.208 654.848H73.344s-33.728 0-33.728-33.728v-472.576c0-33.792 33.728-33.792 33.728-33.792h101.312v-168.768l168.768 168.768h438.784s33.728 0 33.728 33.792V621.12c0 33.728-33.728 33.728-33.728 33.728z m-33.792-472.512H315.392l-19.776-19.84-53.504-53.504v73.344h-135.04V587.392h641.344v-405.056z m0 0M950.976 823.68H242.112s-33.728 0-33.728-33.728V688.64H275.84V756.096h641.344v-405.056h-67.52V283.52h101.312s33.728 0 33.728 33.728V789.888c0.064 33.792-33.728 33.792-33.728 33.792z m0 0"  horiz-adv-x="1024" />

    
    <glyph glyph-name="signout" unicode="&#59092;" d="M402.286 73.143q0-2.286 0.571-11.429t2.857-15.143T404 33.143 398.286 22t-11.715-3.714H203.714q-68 0-116.285 48.285T39.143 182.857V585.143q0 68 48.286 116.286t116.285 48.285h182.857q7.429 0 12.858-5.428t5.428-12.857q0-2.286 0.572-11.429t2.857-15.143-1.715-13.428-5.714-11.143-11.714-3.715H206.286q-37.715 0-64.572-26.857t-26.857-64.571v-402.286q0-37.714 26.857-64.571t64.572-26.857H384.57l6.572-0.572 6.571-1.714 4.572-3.143 4-5.143 1.143-7.714zM932.57 384q0-14.857-10.857-25.714L610.857 47.429Q600 36.57 585.143 36.57t-25.714 10.858-10.858 25.714V237.714h-256q-14.857 0-25.714 10.857T256 274.286V493.714q0 14.857 10.857 25.715t25.714 10.857h256V694.857q0 14.857 10.858 25.714t25.714 10.858 25.714-10.858l310.857-310.857q10.857-10.857 10.857-25.714z"  horiz-adv-x="1024" />

    
    <glyph glyph-name="_wodexiaoxi" unicode="&#59094;" d="M439.808 287.846L67.072 524.083v-372.087c0-61.099 49.664-110.967 110.899-110.967h668.058c61.167 0 110.899 49.698 110.899 110.967V517.939L608.119 289.075c-47.514-31.164-120.354-31.607-168.311-1.229zM846.029 726.972H177.971c-61.167 0-110.899-49.698-110.899-110.967v-0.853l419.055-265.591c19.695-12.493 55.091-12.254 74.615 0.546l396.22 259.959v5.939c-0.034 61.065-49.698 110.967-110.933 110.967z"  horiz-adv-x="1024" />

    
    <glyph glyph-name="_woderenwu" unicode="&#59095;" d="M859.2 110.336a55.808 55.808 0 0 0-55.808-55.808h-697.6l97.728 460.416a55.68 55.68 0 0 0 55.68 55.808h641.92c30.72 0 55.68-24.96 55.68-55.808l-97.6-404.608M217.408 612.608h627.84v54.784A55.808 55.808 0 0 1 789.44 723.2H454.656v50.56c0 30.784-24.96 55.808-55.808 55.808h-279.04A55.808 55.808 0 0 1 64 773.76v-663.424l97.6 446.4c0 30.848 24.96 55.872 55.808 55.872"  horiz-adv-x="1024" />

    
    <glyph glyph-name="_wodexiangmu" unicode="&#59096;" d="M225.616 761.406h828.25v-118.432h-828.25V761.406z m0-325.43h828.25v-118.433h-828.25V435.976zM0 704.646c0-44.218 35.943-80.161 80.162-80.161s80.161 35.943 80.161 80.161-35.943 80.162-80.161 80.162S0 748.865 0 704.646c0-44.347 0 0 0 0zM0 384c0-44.218 35.943-80.162 80.162-80.162s80.161 35.944 80.161 80.162-35.943 80.162-80.161 80.162S0 428.218 0 384c0-44.347 0 0 0 0z m225.616-238.933h828.25v-118.433h-828.25V145.067zM0 93.09c0-44.218 35.943-80.162 80.162-80.162s80.161 35.944 80.161 80.162-35.943 80.162-80.161 80.162S0 137.309 0 93.09c0-44.348 0 0 0 0z"  horiz-adv-x="1053" />

    
    <glyph glyph-name="_wodezhaopin" unicode="&#59097;" d="M576.015 321.118v-39.434c0-13.579-11.003-24.582-24.58-24.582h-78.87c-13.577 0-24.58 11.004-24.58 24.582v39.434H63.893v-270.92c0-27.033 22.123-49.158 49.16-49.158h797.894c27.038 0 49.16 22.125 49.16 49.159V321.118H576.015zM910.947 641.193H704.048v78.871c0 27.038-22.122 49.16-49.161 49.16H369.115c-27.04 0-49.161-22.122-49.161-49.16v-78.871h-206.9c-27.038 0-49.161-22.122-49.161-49.161v-206.9h384.093v39.434c0 13.576 11.003 24.58 24.58 24.58h78.87c13.577 0 24.58-11.004 24.58-24.58v-39.434h384.092V592.033c0 27.038-22.123 49.16-49.161 49.16m-270.916 0H383.97v64.015H640.03v-64.015z"  horiz-adv-x="1024" />

    
    <glyph glyph-name="_adress" unicode="&#59098;" d="M827.075 578.78C827.075 753.979 686.052 896 511.972 896 337.994 896 196.925 753.979 196.925 578.78c0-57.853 15.646-111.905 42.489-158.599h-0.341l267.914-545.024c0.935-1.884 2.79-3.157 4.985-3.157 2.153 0 4.066 1.273 4.989 3.157l268.058 545.024h-0.384c26.893 46.694 42.44 100.746 42.44 158.599M512.021 420.201c-86.984 0-157.545 71.03-157.545 158.625 0 87.549 70.561 158.599 157.545 158.599 87.092 0 157.552-71.05 157.552-158.599 0-87.595-70.459-158.625-157.552-158.625"  horiz-adv-x="1024" />

    
    <glyph glyph-name="_mianshishiti" unicode="&#59099;" d="M722.187 702.192h191.76a29.497 29.497 0 0 1-8.637 19.644L738.76 888.386a26.041 26.041 0 0 1-18.3 7.55h-0.192v-191.888a1.92 1.92 0 0 1 1.92-1.856zM683.797 689.972V895.936H151.194a41.398 41.398 0 0 1-41.333-41.334v-940.884c0-22.843 18.555-41.334 41.333-41.334h721.548a41.334 41.334 0 0 1 41.333 41.334V665.594H708.047a24.314 24.314 0 0 0-24.25 24.378z m47.54-471.755a16.828 16.828 0 0 0-16.892-16.827H309.427a16.828 16.828 0 0 0-16.828 16.827V257.76c0 9.213 7.55 16.763 16.828 16.763h405.018c9.342 0 16.892-7.55 16.892-16.763v-39.543z m0 146.204a16.828 16.828 0 0 0-16.892-16.764H309.427a16.828 16.828 0 0 0-16.828 16.764v39.478c0 9.278 7.55 16.828 16.828 16.828h405.018c9.342 0 16.892-7.55 16.892-16.828v-39.478z m0 185.745v-39.542a16.828 16.828 0 0 0-16.892-16.763H309.427a16.828 16.828 0 0 0-16.828 16.763v39.542c0 9.278 7.55 16.828 16.828 16.828h405.018a16.956 16.956 0 0 0 16.892-16.828z"  horiz-adv-x="1024" />

    
    <glyph glyph-name="-xueliyaoqiu" unicode="&#59100;" d="M921.5 504.7v-148.2l31.2-31.2-65.1-67.7-65.9 65.7 45.1 41v117c-191.4-78.9-252.7-103.4-295.2-122.6-42.4-19.1-73-19.1-115.1-3.2-42.1 15.9-242.5 89-342 136.6-66.4 31.8-70.7 51.9 1.1 78.9 93.7 35.6 248.6 92.6 330.7 123.7 48.6 19.7 74.3 30.4 118.9 8 79.7-32.9 261.7-101.2 352.2-138.6 79-34.3 26-45.6 4.1-59.4M580.9 300.1c46.3 19.1 108.7 50.7 176.7 79.8v-234s-88-93.6-242.7-93.6c-166.6 0-256.6 93.6-256.6 93.6V364.3c52.5-21.4 111.5-39.8 182.9-64.2 44-15.7 99.8-21.1 139.7 0m0 0"  horiz-adv-x="1024" />

    
    <glyph glyph-name="eye" unicode="&#59101;" d="M512 704C288.704 704 95.104 573.952 0 384c95.104-189.952 288.704-320 512-320s416.896 130.048 512 320c-95.104 189.952-288.704 320-512 320z m-96-121.984c53.056 0 96-43.008 96-96 0-53.056-42.944-96-96-96s-96 42.944-96 96c0 52.992 42.944 96 96 96z m348.416-348.352C688.896 185.472 601.536 160 512 160s-176.896 25.472-252.416 73.664c-60.16 38.4-111.168 89.856-149.44 150.336 38.272 60.48 89.28 111.936 149.44 150.336a452.316 452.316 0 0 0 11.84 7.296C261.44 514.304 256 484.8 256 454.016c0-141.376 114.624-256 256-256s256 114.624 256 256c0 30.784-5.44 60.224-15.424 87.552 3.968-2.368 7.936-4.736 11.84-7.232 60.16-38.4 111.168-89.792 149.44-150.336-38.272-60.48-89.28-111.936-149.44-150.336z"  horiz-adv-x="1024" />

    
    <glyph glyph-name="_zhaopinrenshu" unicode="&#59102;" d="M206.318 283.05v3.406c1.962 22.927 12.154 41.908 28.721 57.343 15.347 14.298 33.579 22.612 54.724 24.985 14.706 1.65 28.572-0.731 42.366-5.148 9.206-2.947 16.619-8.948 24.25-14.473 20.828-15.08 40.678-31.515 62.536-45.166 21.032-13.135 43.11-23.857 68.092-26.732 17.172-1.976 34.38-0.869 51.384 2.144 43.66 7.736 81.568 27.142 113.967 57.252 18.292 17.001 39.496 27.62 64.533 28.274 30.438 0.794 56.104-10.566 76.082-33.869 8.476-9.887 14.42-21.17 18.284-33.657 1.698-5.49 1.19-11.174 2.557-16.63 0-91.553-0.024-183.105 0.088-274.658 0.004-3.594-0.327-4.803-4.491-4.8-199.562 0.14-399.125 0.14-598.688 0-4.16-0.003-4.498 1.2-4.493 4.798 0.113 90.04 0.088 180.078 0.088 270.118 0.928 2.27 0.928 4.541 0 6.813zM527.666 766.775c8.027-1.48 16.081-2.827 24.077-4.458 80.438-16.41 143.997-84.141 155.509-165.658 14.9-105.503-51.863-201.551-156.114-224.586-105.527-23.316-213.918 46.78-235.867 152.535-22.485 108.34 42.617 211.36 149.884 237.029 6.967 1.667 14.122 2.547 21.185 3.816 1.012 0.182 2.373-0.263 2.717 1.323h4.543c0.627-0.7 1.471-0.558 2.272-0.585 0.8 0.025 1.643-0.114 2.27 0.585h21.574c0.925-0.921 2.104-0.468 3.176-0.585 0.868 0.05 1.8-0.18 2.501 0.585l2.273-0.001zM206.318 283.05c1.96-2.27 1.585-4.543 0-6.813v6.813zM523.19 765.78c-1.3-0.169-2.619-0.393-3.473 0.995h3.406c0.353-0.199 0.48-0.413 0.383-0.642-0.1-0.236-0.206-0.354-0.316-0.354zM495.812 765.828c-0.927-0.127-1.937-0.45-2.211 0.947h2.27c0.383-0.236 0.501-0.453 0.357-0.656-0.138-0.193-0.275-0.29-0.416-0.29zM495.812 765.828c0.03 0.315 0.05 0.63 0.06 0.947h2.27c-0.426-1.178-1.337-1.162-2.33-0.947zM523.19 765.78c-0.06 0.329-0.081 0.661-0.067 0.995h2.271c-0.29-1.313-1.278-1.086-2.204-0.996z"  horiz-adv-x="1024" />

    
    <glyph glyph-name="edit" unicode="&#59103;" d="M383.754 249.754l181.095 51.415-129.352 128.56-51.743-179.975z m483.68 352.154L738.081 730.471 453.5 447.641l129.352-128.55 284.582 282.817z m-37.695-476.08c0-44.671-36.226-80.913-80.911-80.913H263.344c-44.697 0-80.914 36.242-80.914 80.913V611.313c0 44.697 36.217 80.913 80.914 80.913h323.655l80.915 80.915H236.373c-74.487 0-134.856-60.369-134.856-134.857v-539.426c0-74.489 60.37-134.856 134.856-134.856h539.426c74.474 0 134.856 60.369 134.856 134.856V530.4l-80.916-80.915v-323.657z m97.815 584.073l-80.85 80.347c-13.395 13.315-35.835 12.59-50.124-1.606l-38.812-38.561 129.354-128.562 38.81 38.573c14.289 14.197 15.014 36.493 1.622 49.809z"  horiz-adv-x="1024" />

    
    <glyph glyph-name="login" unicode="&#59104;" d="M65.843 383.081c0-246.179 199.576-445.755 445.76-445.755 246.179 0 445.755 199.576 445.755 445.755 0 246.185-199.576 445.76-445.755 445.76-246.184 0-445.76-199.575-445.76-445.76z m0 0M411.306 427.658v-111.437s3.898-72.549-44.577-83.581c0 0-1.559-117.01 156.015-117.01V427.658H411.306z m222.876 0v-111.437s-3.898-72.549 44.577-83.581c0 0 1.561-117.01-156.014-117.01V427.658h111.437z m0 0M400.16 349.651s100.296-138.075 267.457-111.439c-54.159 15.934-33.435 133.726-33.435 133.726L400.16 349.651z m0 0M508.46-62.674c-151.279 0.025-292.22 76.766-374.329 203.822a408.723 408.723 0 0 0 240.598 97.064c22.012-60.866 80.154-101.116 144.872-100.296 93.719 0 133.726 100.296 133.726 100.296s156.014-16.494 236.7-85.586c-80.714-133.632-225.454-215.3-381.567-215.3z m0 0M656.471 474.799s26.637 49.367 40.453 22.956c13.82-26.412-1.561-93.163-51.596-114.674l11.143 91.718z m0 0M517.172 617.107c33.434 0 128.157-11.146 128.157-11.146s11.143-106.982 11.143-156.014c0-92.27-68.536-167.162-139.299-167.162-70.764 0-139.299 74.892-139.299 167.162 0 57.951 11.146 156.014 11.146 156.014s101.855 11.146 128.152 11.146z m0 0M389.019 505.666s-59.732 63.856 0 167.162c30.089 52.041 93.162 55.719 122.585 55.719 104.861 0 170.055-34.323 178.302-122.585 7.687-82.908-17.276-112.887-22.288-111.437 0 0-33.435 53.602-33.435 89.15 0 0-122.579-45.912-200.587 44.577-35.663-9.027-44.577-100.297-44.577-122.586z m0 0"  horiz-adv-x="1024" />

    
    <glyph glyph-name="delete" unicode="&#59105;" d="M603.534 140.231c-16.867 0-30.52 13.625-30.52 30.464v335.19c0 16.839 13.624 30.463 30.52 30.463s30.521-13.624 30.521-30.464v-335.189c0-16.839-13.653-30.464-30.52-30.464z m-183.068 0c-16.868 0-30.521 13.625-30.521 30.464v335.19c0 16.839 13.625 30.463 30.52 30.463 16.868 0 30.522-13.624 30.522-30.464v-335.189c-0.029-16.839-13.654-30.464-30.521-30.464z m488.22 518.002H756.11v60.956c0 50.404-40.732 91.42-90.851 91.42H359.424c-50.46 0-91.534-41.016-91.534-91.42v-60.956H115.314c-16.868 0-30.521-13.625-30.521-30.464 0-16.84 13.625-30.464 30.52-30.464h793.345c16.867 0 30.52 13.625 30.52 30.464s-13.624 30.464-30.492 30.464z m-579.754 60.956c0 16.783 13.71 30.464 30.52 30.464h305.835c16.725 0 29.81-13.369 29.81-30.464v-60.956H328.932v60.956z m396.8-761.77H298.468c-50.46 0-91.535 41.017-91.535 91.42v457.5c0 16.811 13.682 30.465 30.521 30.465 16.84 0 30.521-13.654 30.521-30.464v-457.53c0-16.81 13.71-30.463 30.521-30.463H725.76c16.84 0 30.52 13.653 30.52 30.464V505.088c0 16.81 13.654 30.464 30.522 30.464 16.867 0 30.52-13.653 30.52-30.464v-456.277c-0.056-50.404-41.13-91.392-91.59-91.392z m0 0"  horiz-adv-x="1024" />

    
    <glyph glyph-name="reminder_" unicode="&#59106;" d="M511.7 745.5c-199.5 0-361.2-161.7-361.2-361.2S312.2 23 511.7 23s361.2 161.7 361.2 361.2-161.7 361.3-361.2 361.3z m0-561.9c-22.2 0-40.2 18-40.2 40.2 0 22.2 18 40.2 40.2 40.2 22.2 0 40.2-18 40.2-40.2-0.1-22.2-18-40.2-40.2-40.2zM550 344.3c-1.4-20.6-17.4-37.2-37.9-39.4 1.4-0.1 2.7-0.8 4.2-0.8H508c1.4 0 2.7 0.7 4.1 0.8-20.5 2.1-36.5 18.8-37.5 39.4l-9.2 200.5c-0.6 10.5 3.3 20.8 10.6 28.5s17.4 11.9 28 11.8h18.5c10.6 0.2 20.7-4 28-11.7 7.3-7.7 11-18 10.2-28.6L550 344.3z m0 0"  horiz-adv-x="1024" />

    
    <glyph glyph-name="SignOut" unicode="&#59107;" d="M402.286 73.143q0-2.286 0.571-11.429t2.857-15.143T404 33.143 398.286 22t-11.715-3.714H203.714q-68 0-116.285 48.285T39.143 182.857V585.143q0 68 48.286 116.286t116.285 48.285h182.857q7.429 0 12.858-5.428t5.428-12.857q0-2.286 0.572-11.429t2.857-15.143-1.715-13.428-5.714-11.143-11.714-3.715H206.286q-37.715 0-64.572-26.857t-26.857-64.571v-402.286q0-37.714 26.857-64.571t64.572-26.857H384.57l6.572-0.572 6.571-1.714 4.572-3.143 4-5.143 1.143-7.714zM932.57 384q0-14.857-10.857-25.714L610.857 47.429Q600 36.57 585.143 36.57t-25.714 10.858-10.858 25.714V237.714h-256q-14.857 0-25.714 10.857T256 274.286V493.714q0 14.857 10.857 25.715t25.714 10.857h256V694.857q0 14.857 10.858 25.714t25.714 10.858 25.714-10.858l310.857-310.857q10.857-10.857 10.857-25.714z"  horiz-adv-x="1024" />

    
    <glyph glyph-name="ShoppingCart" unicode="&#59108;" d="M249.035 80.628c-39.031 0-70.648-31.618-70.648-70.647 0-39.01 31.617-70.648 70.648-70.648 39.01 0 70.647 31.637 70.647 70.648 0 39.03-31.637 70.647-70.647 70.647z m625.74 0c-39.032 0-70.648-31.618-70.648-70.647 0-39.01 31.617-70.648 70.647-70.648 39.01 0 70.647 31.637 70.647 70.648 0 39.03-31.637 70.647-70.647 70.647z m-484.7 222.076h363.332c16.734 0 30.277 13.562 30.277 30.28 0 16.714-13.543 30.276-30.277 30.276H390.074c-16.735 0-30.277-13.562-30.277-30.277 0-16.716 13.542-30.279 30.277-30.279z m0 161.48h363.332c16.734 0 30.277 13.563 30.277 30.278 0 16.716-13.543 30.277-30.277 30.277H390.074c-16.735 0-30.277-13.561-30.277-30.277 0-16.714 13.542-30.278 30.277-30.278z m0 161.481h363.332c16.734 0 30.277 13.563 30.277 30.278 0 16.716-13.543 30.278-30.277 30.278H390.074c-16.735 0-30.277-13.562-30.277-30.278 0-16.715 13.542-30.278 30.277-30.278z m-191.76 80.74v-464.257s3.155-100.925 80.742-100.925h565.182s100.924 29.825 100.924 121.111V595.387 716.5c0 16.715-13.54 30.277-30.276 30.277s-30.279-13.562-30.279-30.277v-454.164s-1.298-60.555-60.555-60.555H299.241s-40.37 0.787-40.37 60.555v444.07s6.821 72.306-40.37 100.927c-47.19 28.621-67.948 20.185-100.926 20.185 0 0-40.37-0.275-40.37-40.37 0-26.217 45.593-20.186 60.556-20.186 14.96 0 60.555-6.937 60.555-60.555z"  horiz-adv-x="1024" />

    
    <glyph glyph-name="set" unicode="&#59109;" d="M989.632 459.456h-47.008c-21.568 0-44.384 16.832-50.848 37.408l-26.944 65.568c-10.208 18.976-6.048 46.976 9.152 62.208l33.344 33.312c15.296 15.296 15.296 40.192 0 55.456l-55.424 55.36c-15.264 15.232-40.192 15.232-55.424 0l-33.344-33.312c-15.168-15.232-43.232-19.392-62.24-9.216l-65.472 26.976c-20.544 6.368-37.44 29.248-37.44 50.784V851.072c0 21.504-17.664 39.2-39.136 39.2h-78.304c-21.568 0-39.232-17.696-39.232-39.2v-47.008c0-21.568-16.8-44.448-37.408-50.784l-65.568-26.976c-19.008-10.24-46.976-6.08-62.144 9.184l-33.44 33.312c-15.232 15.2-40.16 15.2-55.36 0l-55.36-55.36c-15.264-15.264-15.264-40.16 0-55.392l33.248-33.344c15.296-15.232 19.424-43.232 9.216-62.208l-26.976-65.632c-6.368-20.576-29.184-37.44-50.784-37.44l-46.976 0.064c-21.536 0-39.2-17.6-39.2-39.168v-78.336c0-21.568 17.664-39.232 39.2-39.232h46.976c21.6-0.032 44.384-16.832 50.688-37.408l27.072-65.568c10.144-19.008 6.016-47.072-9.216-62.272l-33.344-33.28c-15.168-15.264-15.168-40.192 0-55.392l55.456-55.456c15.2-15.232 40.128-15.232 55.36 0l33.376 33.344c15.168 15.232 43.136 19.36 62.048 9.12l65.728-27.008c20.608-6.4 37.408-29.216 37.408-50.752v-46.912c0-21.504 17.568-39.168 39.232-39.168h78.304c21.472 0 39.136 17.664 39.136 39.168V-41.92c0 21.536 16.896 44.352 37.44 50.752l65.6 27.008c18.976 10.24 47.04 6.08 62.272-9.12l33.184-33.344c15.264-15.232 40.192-15.232 55.424 0l55.424 55.456c15.296 15.232 15.296 40.16 0 55.392l-33.344 33.28c-15.232 15.232-19.36 43.296-9.152 62.272l26.944 65.568c6.464 20.576 29.344 37.376 50.848 37.376h47.008c21.504 0 39.136 17.664 39.136 39.2v78.4c-0.032 21.536-17.632 39.136-39.136 39.136m-274.08-78.24c0-108.192-87.68-195.808-195.808-195.808-108.16 0-195.84 87.584-195.84 195.808 0 108.096 87.68 195.776 195.84 195.776 108.128 0 195.808-87.68 195.808-195.776"  horiz-adv-x="1029" />

    
    <glyph glyph-name="zhankai" unicode="&#59110;" d="M509.184 241.152L129.28 622.08c-13.056 13.056-34.305 13.056-47.617 0l-11.776-12.032c-13.056-13.056-13.056-34.561 0-47.617l415.488-416.512c13.056-13.056 34.305-13.056 47.617 0L948.48 562.687c13.056 13.056 13.056 34.561 0 47.617l-11.776 12.032c-13.056 13.056-34.305 13.056-47.617 0L509.183 241.152z"  horiz-adv-x="1024" />

    
    <glyph glyph-name="store" unicode="&#59111;" d="M511.141-80c-11.094 0-22.04 3.55-31.312 10.65-14.89 11.637-364.887 264.052-455.814 483.48-0.543 1.182-0.987 2.414-1.43 3.696C8.137 453.33 0.839 486.712 0.839 517.136c0 1.479 0.05 2.86 0.147 4.24-0.493 4.192-0.986 9.37-0.986 15.139C0.001 708.308 133.876 848 298.371 848c81.066 0 158.037-35.256 213.607-95.364C567.502 812.745 644.376 848 725.588 848c164.396 0 298.37-139.793 298.37-311.486 0-5.72-0.444-10.455-0.84-14.005 0.198-1.528 0.247-3.403 0.247-5.473 0-26.922-6.015-55.818-18.343-88.214-4.487-12.624-10.108-25.494-17.21-39.397-0.492-0.642-0.936-1.38-1.33-2.072l-0.345-0.838c-1.036-1.776-1.874-3.649-2.761-5.473-2.96-5.77-6.361-12.427-10.85-19.38-118.489-204.486-417.056-420.708-429.777-430.667-9.32-7.299-20.366-10.996-31.609-10.996z"  horiz-adv-x="1040" />

    
    <glyph glyph-name="user" unicode="&#59112;" d="M512 884a500 500 0 1 1 500-500A500 500 0 0 1 512 884z m0-972a470.64 470.64 0 0 0-345.6 150.64c49.2 48 135.6 87.44 213.76 115.68 8.48 3.12 48.88 30.08 26.24 89.36a368 368 0 0 0-101.76 247.44C304.64 659.68 400 732.8 512 732.8s208-80.96 208-225.52c0-94-101.36-239.6-101.36-239.6-22.16-17.92 13.36-87.52 18.8-89.36 82.56-27.36 171.2-66.08 220.8-115.04A470.64 470.64 0 0 0 512-88z"  horiz-adv-x="1024" />

    
    <glyph glyph-name="nandu" unicode="&#59113;" d="M962.8 428c38 37.2 17.2 101.6-35.6 109.2l-214 31.2c-20.8 3.2-38.8 16-48 35.2l-95.6 194c-11.6 23.6-34.4 35.6-57.2 35.6-22.8 0-45.6-12-57.2-35.6l-96.4-194.4c-9.2-18.8-27.2-32-48-35.2l-214-31.2c-52.4-7.6-73.6-72-35.6-109.2L216 276.8c15.2-14.8 22-36 18.4-56.8L198 6.8c-7.2-41.2 25.6-74.8 63.2-74.8 10 0 20 2.4 29.6 7.6l191.6 100.8c9.2 4.8 19.6 7.2 29.6 7.2 10.4 0 20.4-2.4 29.6-7.2l191.6-100.8c10-5.2 20-7.6 29.6-7.6 37.2 0 70 33.6 63.2 74.8L789.6 220c-3.6 20.8 3.2 42 18.4 56.8L962.8 428z"  horiz-adv-x="1024" />

    
    <glyph glyph-name="quxiaozige" unicode="&#59114;" d="M916.192 740.589l-58.004 57.995-357.607-357.63-357.593 357.63-58.028-57.995 357.626-357.64L84.96 25.302l58.028-57.973L500.581 324.95l357.607-357.621 58.004 57.973-357.611 357.647 357.611 357.64z m0 0"  horiz-adv-x="1024" />

    
    <glyph glyph-name="wodexiangmu" unicode="&#59115;" d="M316.713 779.533h642.62v-148.299h-642.62zM69.555 779.518h148.299v-148.299H69.555zM316.713 165.162h642.62v-148.294h-642.62zM69.555 165.162h148.299v-148.294H69.555zM316.713 472.073h642.62v-148.294h-642.62zM69.555 472.073h148.299v-148.294H69.555z"  horiz-adv-x="1024" />

    
    <glyph glyph-name="wodedingdan" unicode="&#59116;" d="M635.475 671.811H352.568v106.71h56.846c0 14.749 5.404 27.3 16.288 37.484 10.795 10.282 24.118 15.35 39.829 15.35h56.846c15.616 0 28.872-5.063 39.876-15.35 10.789-10.283 16.183-22.764 16.183-37.484h56.836V671.81h0.203z m-141.053 47.733c9.653 0 17.889 3.292 24.861 9.771 6.972 6.474 10.51 14.384 10.51 23.506 0 9.658-3.571 17.653-10.51 23.838-6.982 6.271-15.161 9.322-24.861 9.322-10.282 0-18.694-3.22-25.378-9.322-6.555-6.27-9.903-14.2-9.903-23.838 0-9.159 3.348-16.956 9.903-23.506 6.556-6.546 15.148-9.771 25.378-9.771zM721.099 299.68c27.169 0 52.891-5.054 76.966-14.9 24.118-9.928 45.199-23.507 63.235-40.549 18.031-17.231 32.402-36.934 42.888-59.749 10.534-22.764 15.759-46.91 15.759-72.524 0-26.301-5.391-50.787-15.759-73.489-10.505-22.796-24.86-42.58-42.888-59.749-18.083-17.104-39.179-30.342-63.235-40.009-24.184-9.656-49.727-14.511-76.966-14.511-27.665 0-53.54 4.746-77.643 14.511-24.108 9.658-45.313 22.995-63.202 40.009-18.031 17.231-32.397 36.891-42.888 59.749-10.528 22.762-15.758 47.203-15.758 73.489 0 25.591 5.262 49.755 15.758 72.524 10.534 22.758 24.899 42.58 42.888 59.749 17.932 17.099 39.18 30.588 63.202 40.549 24.118 9.903 49.959 14.9 77.643 14.9z m123.146-171.571c3.661 3.912 6.982 9.022 9.875 14.54 3.088 5.759 2.094 10.789-2.657 15.35-1.227 1.222-4.164 3.913-8.587 8.483-4.448 4.736-7.261 7.133-8.582 7.749-5.987 3.907-11.722 4.447-17.112 1.69-5.523-2.832-10.795-6.982-16.189-12.021a4783.87 4783.87 0 0 0-41.225-38.412c-13.603-12.48-26.32-24.378-38.445-35.821-4.164-3.996-8.734-6.54-13.849-7.26-5.176-0.781-9.16 0.683-12.277 4.746-1.804 1.587-4.622 4.447-8.587 8.474-3.908 3.912-8.052 8.264-12.063 12.821-4.177 4.736-8.465 9.037-12.281 13.209-3.908 4.268-6.74 7.265-8.483 9.028a30.666 30.666 0 0 1-12.277 5.75c-4.623 0.781-9.161-0.644-13.973-4.746-0.563-0.497-2.093-1.805-4.622-3.672-2.335-2.05-4.746-4.172-7.148-6.977a120.802 120.802 0 0 0-7.151-6.744c-2.492-1.923-3.908-3.292-4.452-3.747-9.051-9.056-7.943-19.646 3.571-31.653 3.667-3.913 8.464-9.037 14.546-14.901 5.929-5.93 12.385-12.48 18.926-19.121 6.56-6.811 13.214-13.489 19.869-20.086 6.702-6.546 12.461-11.723 17.231-15.711 4.749-4.452 11.31-6.74 19.94-6.542 8.473 0.005 14.725 2.828 18.931 7.265 8.483 7.446 18.031 16.289 28.973 26.879 10.68 10.534 22.26 21.201 33.836 31.942 11.723 10.794 23.312 21.541 34.381 31.999 10.97 10.528 21.012 19.863 30.176 27.726l-0.295-0.237z m-381.486 9.502c0-3.998-0.005-7.958-0.435-11.978-0.436-4.027-0.469-8.184-0.469-12.826 0-25.591 3.907-49.96 11.718-72.951 7.929-22.999 18.95-44.185 33.424-63.5H242.973c-11.31 0-23.823 3.023-37.454 9.312-13.603 6.271-26.302 14.54-37.995 24.752-11.723 10.283-21.537 21.949-29.366 35.006-7.943 13.059-11.723 26.747-11.723 40.969V614.709c0 11.855 3.022 24.317 9.037 37.086 6.134 12.821 13.849 24.658 23.606 35.494 9.653 10.79 20.873 19.698 33.429 27.017 12.646 7.076 25.937 10.6 39.866 10.6h64.188v-106.758H691.72V724.906h55.965c13.849 0 27.532-2.828 41.14-8.582 13.608-5.755 25.799-13.328 36.646-23 10.846-9.672 19.863-21.266 26.651-35.049 6.991-13.631 10.42-28.106 10.42-43.471v-301.985c-21.01 12.986-43.58 23.207-67.706 30.686-24.113 7.446-49.727 11.111-76.771 11.111h-6.318c10.968 4.003 19.863 10.534 26.859 19.609 6.744 9.156 10.415 19.457 10.415 30.8 0 14.721-5.523 27.197-16.776 37.48-11.116 10.282-24.383 15.35-40.013 15.35H297.076c-15.616 0-28.977-5.054-40.14-15.35-11.211-10.283-16.753-22.759-16.753-37.48 0-14.862 5.523-27.518 16.753-37.999 11.211-10.529 24.658-15.73 40.14-15.73h378.725c-36.134-5.755-68.937-17.748-98.322-36.238-29.573-18.533-54.014-41.941-73.3-70.335H297.18c-15.616 0-28.977-5.166-40.14-15.478-11.211-10.283-16.753-22.687-16.753-37.484 0-14.749 5.523-27.433 16.753-37.92 11.211-10.528 24.658-15.729 40.14-15.729l166.185-0.005-0.606-0.496z m0 0"  horiz-adv-x="1024" />

    
    <glyph glyph-name="wodejianli" unicode="&#59117;" d="M709.276 813.096H184.289c-48.126 0-87.5-39.374-87.5-87.5v-699.989c0-48.126 39.374-87.494 87.5-87.494h656.235c48.126 0 87.501 39.369 87.501 87.494V594.346L709.276 813.096zM422.431 703.721c48.271 0 87.496-39.225 87.496-87.494 0-31.208-16.622-60.087-43.748-75.835a87.628 87.628 0 0 0-87.5 0c-27.12 15.604-43.748 44.476-43.748 75.835 0 48.269 39.23 87.494 87.5 87.494z m-94.066-207.806c26.252-19.687 59.063-32.816 94.065-32.816 34.997 0 67.807 13.129 94.06 32.816 34.997-28.437 59.063-72.185 59.063-120.311H269.31c0 48.126 24.059 91.874 59.055 120.311z m413.727-426.554h-459.37c-17.497 0-32.811 15.309-32.811 32.811 0 17.501 15.314 32.811 32.811 32.811h459.37c17.495 0 32.811-15.309 32.811-32.811 0-17.502-15.315-32.811-32.811-32.811z m0 153.121h-459.37c-17.497 0-32.811 15.309-32.811 32.811 0 17.501 15.314 32.81 32.811 32.81h459.37c17.495 0 32.811-15.309 32.811-32.81 0-17.502-15.315-32.811-32.811-32.811z m32.667 349.847c-48.126 0-87.501 39.374-87.501 87.5V791.077l218.749-218.748H774.759z m0 0"  horiz-adv-x="1024" />

    
    <glyph glyph-name="wodeshixun" unicode="&#59118;" d="M694.775 791.097H196.551c-50.025 0-90.584-40.553-90.584-90.584v-611.122c0-50.03 40.559-90.59 90.584-90.59h498.23c50.031 0 90.584 40.561 90.584 90.59V700.513c0.001 50.025-40.552 90.584-90.59 90.584zM410.22 448.615l-101.179 67.976-101.173-67.976V673.499c0 12.509 10.137 22.646 22.646 22.646h157.059c12.509 0 22.646-10.137 22.646-22.646v-224.884z m474.543 342.482c-25.346 0-45.895-20.543-45.895-45.887v-706.427c0-25.344 20.549-45.887 45.895-45.887 25.344 0 45.887 20.543 45.887 45.887V745.21c0 25.344-20.543 45.887-45.887 45.887z m0 0"  horiz-adv-x="1024" />

    
    <glyph glyph-name="wodeshoucang" unicode="&#59119;" d="M785.281 796.295H229.124c-76.788 0-139.04-62.251-139.04-139.04v-556.151c0-76.794 62.252-139.042 139.04-139.042h556.157c76.788 0 139.035 62.247 139.035 139.042V657.255c0 76.789-62.247 139.04-139.035 139.04z m-16.997-423.988l-229.61-226.858s-9.627-13.752-30.247-13.752c-20.625 0-30.246 13.752-30.246 13.752l-229.61 226.858c-26.121 27.498-42.621 63.246-42.621 104.489 0 82.494 67.371 149.865 148.488 149.865 41.245 0 78.369-16.499 104.49-42.621l48.122-54.995 48.124 54.995c27.498 26.122 63.241 42.621 104.49 42.621 82.493 0 148.487-67.371 148.487-149.865 2.754-39.872-13.745-76.991-39.867-104.489z m0 0"  horiz-adv-x="1024" />

    
    <glyph glyph-name="wodexiaoxi" unicode="&#59120;" d="M511.748 750.79c-244.406 0-442.524-157.407-442.524-351.501 0-98.772 51.292-188.029 133.865-251.884 82.572-63.851-5.67-136.378 51.679-165.058 62.564-31.285 309.387 67.863 309.387 67.863 58.07 5.447 112.697 19.8 161.64 41.344 136.244 59.921 228.489 175.224 228.489 307.725 0.001 194.104-198.131 351.511-442.536 351.511zM303.852 373.885c-22.469 0-40.682 18.209-40.682 40.677 0 22.464 18.213 40.677 40.682 40.677 22.463 0 40.677-18.213 40.677-40.677a40.674 40.674 0 0 0-11.887-28.785 40.693 40.693 0 0 0-28.761-11.945l-0.029 0.053z m235.443-1.585c-22.463 0-40.677 18.209-40.677 40.677s18.214 40.677 40.677 40.677c22.469 0 40.677-18.21 40.677-40.677 0.015-10.79-4.258-21.144-11.881-28.781s-17.963-11.934-28.756-11.944l-0.04 0.048z m235.45 0c-22.468 0-40.677 18.209-40.677 40.677s18.21 40.677 40.677 40.677c22.463 0 40.677-18.21 40.677-40.677a40.661 40.661 0 0 0-11.891-28.79 40.657 40.657 0 0 0-28.776-11.935l-0.01 0.048z m0 0"  horiz-adv-x="1024" />

    
    <glyph glyph-name="wodezhuye" unicode="&#59121;" d="M547.271 775.954s-19.153 20.093-38.215 20.093c-19.154 0-38.303-20.093-38.303-20.093s-336.589-336.589-360.91-360.809c-32.296-32.296-19.057-60.183-19.057-60.183l16.43-18.213s17.183-19.063 38.307-19.063h38.21v-325.32s-1.783-38.21 38.307-38.21h153.035c39.811 0 38.216 38.21 38.216 38.21v95.672s1.316 38.306 38.306 38.306h95.575c38.495 0 38.307-38.306 38.307-38.306v-95.672s-2.159-38.21 38.21-38.21H776.73c40.557 0 38.306 38.21 38.306 38.21V317.595h38.307c20.185 0 38.303 19.058 38.303 19.058l19.062 18.213s35.863 26.947 2.627 60.183L547.271 775.954z m0 0"  horiz-adv-x="1024" />

    
    <glyph glyph-name="wodezhaopin" unicode="&#59122;" d="M282.644 486.909v4.776c0 18.995 15.226 34.482 33.784 34.482h27.039c18.615 0 33.784-15.487 33.784-34.482v-5.036c0-19.021 4.748-20.846 23.306-20.846h235.389c17.197 0 18.907 2.346 18.907 18.214v7.668c0 18.995 15.196 34.482 33.784 34.482h26.288c18.584 0 33.784-15.487 33.784-34.482v-6.021c0-17.078 5.672-19.861 22.202-19.861h129.898c17.604 0 22.582 4.864 22.582 22.061v38.533c0 37.955-30.396 68.987-67.568 68.987H176.746c-37.172 0-67.568-31.032-67.568-68.987v-36.13c0-19.512 5.588-24.464 26.491-24.464h122.746c19.683 0.032 24.229 2.116 24.229 21.106z m466.093-91.395v-7.323c0-18.99-15.201-34.567-33.784-34.567h-26.288c-18.584 0-33.784 15.576-33.784 34.567v6.86c0 14.94-4.166 18.995-19.221 18.995H401.454c-19.22 0-24.203-4.227-24.203-21.456v-4.399c0-18.99-15.196-34.567-33.784-34.567h-27.039c-18.558 0-33.784 15.576-33.784 34.567v2.779c0 20.152-4.922 23.102-23.302 23.102H135.085c-20.554 0-25.877-5.182-25.877-25.881v-344.849c0-37.985 30.396-69.017 67.568-69.017H855.88c37.172 0 67.568 31.032 67.568 69.017v350.03c0 15.518-6.486 20.699-20.784 20.699H771.839c-18.182-0.026-23.102-3.211-23.102-18.557z m-393.14 21.716c0-18.615-11.374-33.789-25.241-33.789-13.871 0-25.245 15.174-25.245 33.789v41.568c0 18.589 11.374 33.789 25.245 33.789 13.867 0 25.241-15.2 25.241-33.789v-41.568z m371.834 0c0-18.615-11.348-33.789-25.245-33.789-13.866 0-25.246 15.174-25.246 33.789v41.568c0 18.589 11.38 33.789 25.246 33.789 13.865 0 25.245-15.2 25.245-33.789v-41.568zM330.732 583.196c28.341 76.69 100.857 131.316 185.942 131.316 85.057 0 157.634-54.626 185.977-131.316 0 0 6.021-25.303 41.051-25.303 35.087 0 34.999 25.303 34.999 25.303-30.893 118.174-136.499 205.342-262.028 205.342-125.525 0-231.106-87.168-261.996-205.342 0 0-1.965-22.202 34.336-22.202 36.219 0.027 41.719 22.202 41.719 22.202z m0 0"  horiz-adv-x="1024" />

    
    <glyph glyph-name="mianshishiti" unicode="&#59123;" d="M680.048 574.44H895.61L637.262 833.283v-215.689c0-26.106 22.608-43.154 42.786-43.154M626.967 519.873c-36.948 0-44.772 7.844-44.772 44.772V833.283H224.009c-56.816 0-89.545-48.75-89.545-89.545V27.37c0-50.15 43.918-89.549 89.545-89.549H806.06c48.814 0 89.544 41.495 89.544 89.549V519.873H626.967z m22.387-335.801H380.716c-12.328 0-22.386 10.099-22.386 22.386 0 12.333 10.059 22.385 22.386 22.385h268.643c12.302 0 22.385-10.052 22.385-22.385-0.004-12.286-10.083-22.386-22.39-22.386m0 134.322H380.716c-12.328 0-22.386 10.099-22.386 22.386 0 12.328 10.059 22.385 22.386 22.385h268.643c12.302 0 22.385-10.058 22.385-22.385-0.004-12.287-10.083-22.386-22.39-22.386M492.651 452.71H380.716c-12.328 0-22.386 10.105-22.386 22.39 0 12.329 10.059 22.386 22.386 22.386h111.935c12.307 0 22.387-10.058 22.387-22.386 0-12.291-10.08-22.39-22.387-22.39"  horiz-adv-x="1024" />

    
    <glyph glyph-name="zhengshu" unicode="&#59124;" d="M838.557-44.333v22.384h22.183c-0.001-12.343-9.952-22.384-22.183-22.384z m-263.964 0H176.246c-12.231 0-22.182 10.041-22.182 22.384V808.813c0 12.342 9.951 22.384 22.182 22.384h662.311c12.231 0 22.183-10.042 22.183-22.384v-490.305h-40V791.197H194.064v-795.53h380.529v-40zM259.754 173.698h277.607v-54.032H259.754zM258.769 294.581h371.57v-52.757h-371.57zM770.604 282.777c-101.434 0-180.957-76.485-180.957-174.081 0-94.955 82.258-174.091 180.957-174.091 101.447 0.009 180.957 76.508 180.957 174.1 0 97.587-82.264 174.072-180.957 174.072z m-2.745-279.576c-8.222-7.916-24.673-7.916-35.635 0l-76.765 73.845c-8.227 7.913-8.227 23.747 0 31.65 8.224 7.917 24.669 7.917 35.64 0l60.314-58.033 117.894 110.786c8.227 7.913 24.673 7.913 35.64 0 8.229-7.921 8.229-23.742 0-31.664L767.859 3.201z m0 0M259.451 588.749h65.834v-128.642h15.134l-6.811-28.125h-12.486c-10.174 0-17.783 1.431-22.828 4.288-7.736 4.373-11.603 12.697-11.603 24.972v99.382h-27.242v28.125z m42.25 70.879c4.036-5.549 6.767-9.543 8.198-11.981 6.221-10.342 12.78-24.719 19.675-43.133h-42.25c-2.944 20.347-8.241 38.719-15.891 55.114h30.268z m148.317-35.692v-58.267h38.845v-28.503h-38.845v-74.158H498.7v-28.503H341.933v28.503h13.873V588.497h37.079v-125.489h16.774V623.936h-62.051v28.503h148.19v-28.503h-45.78zM600.227 595.055h-62.178v28.503h62.178v38.719h43.258v-38.719h62.809c-6.811 11.603-14.674 22.154-23.584 31.656h32.79c9.162-7.232 16.016-13.243 20.557-18.035 3.951-4.206 10.889-13.117 20.811-26.737h-37.963v-57.763h26.611v-72.519c0-12.36-3.658-20.684-10.973-24.972-5.215-3.027-14.588-4.541-28.125-4.541h-34.682l-6.686 28.503h38.971v45.024h-60.537v-99.004h-43.258v99.004h-79.709v28.503h79.709v42.378z m43.257 0v-42.376h33.928v42.376h-33.928z"  horiz-adv-x="1024" />

    
    <glyph glyph-name="xiajiang" unicode="&#59049;" d="M575.3 385.3V767.9h-192v-382.6H162.5l316.8-316.8 316.8 316.8z"  horiz-adv-x="1024" />

    
    <glyph glyph-name="zhankai1" unicode="&#59050;" d="M958.6 487.4L909.1 537 511 139 113 537l-49.6-49.6 398.1-398-0.3-0.2 49.6-49.6 0.2 0.2 0.3-0.2 49.6 49.6-0.3 0.2z"  horiz-adv-x="1024" />

    


  </font>
</defs>
</svg>
